<svg width="168" height="34" viewBox="0 0 168 34" fill="none" xmlns="http://www.w3.org/2000/svg">
<path d="M14.4724 10.3609H10.0343C10.0768 10.0138 10.0374 9.66174 9.91941 9.33217C9.80138 9.00261 9.60784 8.70449 9.35393 8.46113C9.10002 8.21777 8.79261 8.03576 8.45573 7.92933C8.11886 7.8229 7.76164 7.79493 7.41202 7.84761C6.00027 7.84761 5.19378 8.63696 5.19378 9.73258C5.19378 13.5436 14.6337 14.565 14.6337 20.5751C14.6337 24.0719 12.2541 26.5063 7.53339 26.5063C2.97395 26.5063 0.150452 24.1098 0.150452 20.0999H4.66837C4.63581 20.4763 4.68827 20.8552 4.82196 21.2091C4.95566 21.563 5.16724 21.8832 5.44142 22.1463C5.7156 22.4095 6.04551 22.6092 6.40731 22.7309C6.7691 22.8526 7.15374 22.8933 7.53339 22.85C9.14636 22.85 10.1557 22.0244 10.1557 20.6509C10.1557 17.5503 0.594418 15.7822 0.594418 9.92992C0.594418 6.5515 2.93403 4.15503 7.29065 4.15503C11.89 4.15503 14.4724 6.19787 14.4724 10.3609Z" fill="#141416"/>
<path d="M16.8116 8.28023V4.70604C19.3525 4.70604 20.119 3.75882 20.119 0.620361H23.2268V4.43135H26.7753V8.24076H23.2268V19.3974C23.2268 21.4798 23.5462 22.4617 25.9289 22.4617C26.2269 22.4674 26.5247 22.441 26.8169 22.3828V26.2317C26.8169 26.2317 26.0503 26.3106 25.0011 26.3106C19.3125 26.3106 18.6674 23.09 18.6674 18.0619V8.19813H16.8116V8.28023Z" fill="#141416"/>
<path d="M35.3296 26.5063C31.6341 26.4653 29.681 24.1557 29.681 19.8284V10.8298C29.5459 9.02287 30.106 7.23213 31.2492 5.81588C31.7797 5.28734 32.418 4.87646 33.1215 4.61053C33.825 4.3446 34.5777 4.22971 35.3296 4.27348C36.19 4.22874 37.048 4.3998 37.8236 4.77076C38.5993 5.14173 39.2675 5.70054 39.766 6.39526V4.51029H44.0029V26.1938H39.766V24.3072C39.2776 25.0173 38.6135 25.592 37.837 25.9769C37.0605 26.3618 36.1974 26.5441 35.3296 26.5063ZM36.8675 8.08447C35.1284 8.08447 34.2452 9.18956 34.2452 11.384V19.2775C34.2452 21.4971 35.1028 22.577 36.8675 22.577C38.6242 22.5359 39.4898 21.4577 39.4898 19.2775V10.9514C39.542 10.5863 39.5125 10.2143 39.4032 9.86175C39.2939 9.5092 39.1076 9.18469 38.8575 8.91118C38.6073 8.63768 38.2994 8.42186 37.9555 8.279C37.6116 8.13614 37.2402 8.06973 36.8675 8.08447Z" fill="#141416"/>
<path d="M56.8715 8.51533H56.2663C52.9988 8.51533 52.1508 10.1256 52.1508 13.7061V26.1589H47.6329V4.46911H51.9096V6.63036C52.2722 5.45107 53.8053 4.23389 56.5074 4.23389H56.8699L56.8715 8.51533Z" fill="#141416"/>
<path d="M59.5335 8.28023V4.70604C62.0743 4.70604 62.8409 3.75882 62.8409 0.620361H65.9487V4.43135H69.4972V8.24076H65.9487V19.3974C65.9487 21.4798 66.2681 22.4617 68.6508 22.4617C68.9488 22.4674 69.2465 22.441 69.5387 22.3828V26.2317C69.5387 26.2317 68.7722 26.3106 67.7229 26.3106C62.0344 26.3106 61.3892 23.09 61.3892 18.0619V8.19813H59.5335V8.28023Z" fill="#141416"/>
<path d="M82.2856 4.46948H86.8051V19.5145C86.8697 20.4529 86.7283 21.3939 86.3907 22.2732C86.0531 23.1525 85.5273 23.9493 84.8491 24.609C84.171 25.2687 83.3567 25.7758 82.4619 26.0954C81.5671 26.415 80.613 26.5396 79.6649 26.4608C75.147 26.4608 72.4784 23.7896 72.4784 19.5145V4.46948H77.0011V20.1428C76.9867 20.4861 77.0472 20.8284 77.1784 21.1465C77.3096 21.4647 77.5086 21.7512 77.7617 21.9866C78.0148 22.222 78.3162 22.4008 78.6455 22.5109C78.9747 22.621 79.324 22.6597 79.6697 22.6246C80.0088 22.6414 80.3478 22.5895 80.6659 22.472C80.984 22.3546 81.2745 22.1742 81.5194 21.9417C81.7644 21.7093 81.9587 21.4299 82.0905 21.1205C82.2222 20.8112 82.2886 20.4785 82.2856 20.1428V4.46948Z" fill="#141416"/>
<path d="M94.6706 33.5773H90.1127V4.42975H94.3895V6.31472C94.8742 5.61302 95.533 5.046 96.3027 4.66788C97.0725 4.28976 97.9275 4.11319 98.786 4.15506C99.5481 4.11768 100.31 4.23889 101.021 4.51084C101.733 4.78279 102.379 5.19941 102.917 5.73376C104.055 7.15473 104.611 8.94674 104.475 10.754V19.7842C104.475 24.0751 102.507 26.3437 98.786 26.3437C98.0019 26.3811 97.2202 26.2313 96.5069 25.9071C95.7937 25.5828 95.1698 25.0936 94.6881 24.4809L94.6706 24.4572V33.5694V33.5773ZM97.2529 8.04498C95.5377 8.04498 94.6306 9.18638 94.6306 11.3445V19.279C94.6306 21.3866 95.5377 22.4996 97.2529 22.4996C99.0208 22.4996 99.9167 21.4024 99.9167 19.2396V11.346C99.9167 9.15481 99.0192 8.04498 97.2529 8.04498Z" fill="#141416"/>
<path d="M119.563 26.1529H106.452L113.639 8.31362H107.179V4.46948H119.805L112.664 22.3088H119.563V26.1577V26.1529Z" fill="#141416"/>
<path d="M123.88 26.4288C123.624 26.4347 123.37 26.3904 123.132 26.2985C122.894 26.2066 122.677 26.069 122.493 25.8935C122.309 25.718 122.162 25.5083 122.061 25.2763C121.959 25.0444 121.906 24.7949 121.903 24.5423C121.908 24.0282 122.119 23.5371 122.489 23.1764C122.86 22.8157 123.36 22.6149 123.88 22.6178C124.14 22.6126 124.399 22.6583 124.641 22.7523C124.884 22.8464 125.105 22.9868 125.292 23.1657C125.48 23.3445 125.629 23.5582 125.733 23.7945C125.836 24.0307 125.891 24.2849 125.895 24.5423C125.891 24.7978 125.835 25.0499 125.731 25.2838C125.627 25.5177 125.476 25.7287 125.289 25.9044C125.101 26.0802 124.88 26.2171 124.638 26.3071C124.396 26.3971 124.138 26.4385 123.88 26.4288Z" fill="#141416"/>
<path d="M137.838 21.3219C137.907 22.0128 137.821 22.7102 137.588 23.3648C137.354 24.0195 136.977 24.6153 136.485 25.1101C135.992 25.6049 135.395 25.9866 134.737 26.2281C134.078 26.4697 133.374 26.5652 132.675 26.5079C131.971 26.5716 131.263 26.4809 130.599 26.2422C129.935 26.0035 129.333 25.6227 128.836 25.1272C128.339 24.6316 127.958 24.0335 127.722 23.3757C127.486 22.7178 127.4 22.0165 127.47 21.3219V15.5486C127.412 14.8602 127.508 14.1678 127.75 13.5197C127.991 12.8717 128.374 12.2838 128.869 11.7972C129.365 11.3106 129.963 10.9371 130.62 10.7029C131.277 10.4687 131.979 10.3795 132.675 10.4415C133.367 10.3858 134.064 10.4798 134.716 10.7168C135.368 10.9538 135.96 11.3283 136.451 11.8141C136.943 12.3 137.321 12.8856 137.56 13.5305C137.8 14.1754 137.894 14.864 137.838 15.5486V15.7838H134.57V15.1523C134.597 14.8976 134.566 14.6403 134.481 14.3985C134.396 14.1568 134.258 13.9364 134.077 13.7532C133.896 13.5699 133.677 13.4281 133.435 13.3379C133.192 13.2477 132.933 13.2112 132.675 13.231C132.414 13.2098 132.152 13.2451 131.906 13.3345C131.661 13.4238 131.438 13.5651 131.254 13.7483C131.069 13.9316 130.927 14.1525 130.838 14.3955C130.749 14.6386 130.715 14.8979 130.737 15.1555V21.7544C130.707 22.0136 130.737 22.276 130.823 22.5224C130.91 22.7688 131.051 22.9927 131.237 23.1776C131.423 23.3625 131.649 23.5036 131.898 23.5903C132.147 23.6771 132.412 23.7074 132.675 23.6789C132.933 23.6991 133.193 23.6627 133.436 23.5724C133.679 23.4821 133.898 23.3401 134.079 23.1564C134.26 22.9727 134.398 22.7518 134.483 22.5095C134.568 22.2672 134.597 22.0094 134.57 21.7544V21.1656H137.838V21.3219Z" fill="#141416"/>
<path d="M144.816 26.5081C144.113 26.5697 143.405 26.4776 142.743 26.2382C142.08 25.9988 141.479 25.618 140.982 25.1229C140.485 24.6278 140.105 24.0305 139.868 23.3736C139.631 22.7167 139.543 22.0162 139.611 21.322V15.5487C139.579 14.8709 139.683 14.1936 139.916 13.5555C140.15 12.9175 140.509 12.3314 140.972 11.8308C141.486 11.3565 142.091 10.9891 142.751 10.7505C143.412 10.5118 144.114 10.4068 144.816 10.4416C145.509 10.3859 146.205 10.4799 146.857 10.7169C147.509 10.9539 148.102 11.3284 148.593 11.8142C149.084 12.3001 149.462 12.8858 149.702 13.5306C149.941 14.1755 150.036 14.8641 149.979 15.5487V21.322C150.049 22.7187 149.555 24.0857 148.607 25.1235C148.102 25.5946 147.506 25.9601 146.854 26.198C146.203 26.4359 145.51 26.5414 144.816 26.5081ZM144.816 13.2312C144.554 13.2048 144.29 13.2365 144.042 13.324C143.794 13.4115 143.569 13.5527 143.383 13.7371C143.198 13.9215 143.056 14.1445 142.969 14.3899C142.882 14.6353 142.851 14.8969 142.879 15.1556V21.7546C142.849 22.0137 142.878 22.2762 142.964 22.5226C143.051 22.7689 143.193 22.9929 143.379 23.1777C143.565 23.3626 143.791 23.5037 144.039 23.5905C144.288 23.6772 144.554 23.7075 144.816 23.679C145.074 23.6992 145.334 23.6629 145.577 23.5727C145.819 23.4824 146.039 23.3405 146.22 23.157C146.401 22.9735 146.539 22.7528 146.624 22.5107C146.709 22.2686 146.739 22.011 146.712 21.7562V15.1556C146.739 14.9006 146.709 14.6428 146.624 14.4005C146.539 14.1582 146.402 13.9374 146.221 13.7537C146.04 13.57 145.82 13.4279 145.577 13.3376C145.334 13.2473 145.075 13.211 144.816 13.2312Z" fill="#141416"/>
<path d="M154.941 26.233H151.674V10.5597H154.78V11.8558C155.062 11.3827 155.472 10.9964 155.964 10.7397C156.455 10.483 157.009 10.3661 157.563 10.4018C158.216 10.3586 158.868 10.5023 159.441 10.8159C160.013 11.1295 160.482 11.5997 160.791 12.17C161.147 11.6139 161.642 11.1586 162.229 10.8487C162.816 10.5387 163.475 10.3848 164.14 10.4018C166.44 10.4018 167.851 11.7769 167.851 14.9974V26.2315H164.542V14.9201C164.542 13.624 163.816 13.1914 162.969 13.1914C162.749 13.1845 162.53 13.2246 162.327 13.309C162.123 13.3934 161.941 13.52 161.792 13.6802C161.643 13.8405 161.53 14.0307 161.462 14.2378C161.393 14.4449 161.371 14.6642 161.396 14.8806V26.233H158.089V14.9201C158.089 13.6571 157.362 13.1914 156.516 13.1914C156.295 13.181 156.074 13.2187 155.869 13.3019C155.664 13.385 155.48 13.5116 155.33 13.6727C155.18 13.8338 155.068 14.0254 155.001 14.2341C154.934 14.4428 154.914 14.6635 154.943 14.8806L154.941 26.233Z" fill="#141416"/>
</svg>
